<region> sample=CHR_021.wav pan=-63 key=0 pitch_keycenter=21
<region> sample=CHR_021.wav pan=-62 key=1 pitch_keycenter=21
<region> sample=CHR_021.wav pan=-61 key=2 pitch_keycenter=21
<region> sample=CHR_021.wav pan=-60 key=3 pitch_keycenter=21
<region> sample=CHR_021.wav pan=-59 key=4 pitch_keycenter=21
<region> sample=CHR_021.wav pan=-58 key=5 pitch_keycenter=21
<region> sample=CHR_021.wav pan=-57 key=6 pitch_keycenter=21
<region> sample=CHR_021.wav pan=-56 key=7 pitch_keycenter=21
<region> sample=CHR_021.wav pan=-55 key=8 pitch_keycenter=21
<region> sample=CHR_021.wav pan=-54 key=9 pitch_keycenter=21
<region> sample=CHR_021.wav pan=-53 key=10 pitch_keycenter=21
<region> sample=CHR_021.wav pan=-52 key=11 pitch_keycenter=21
<region> sample=CHR_021.wav pan=-51 key=12 pitch_keycenter=21
<region> sample=CHR_021.wav pan=-50 key=13 pitch_keycenter=21
<region> sample=CHR_021.wav pan=-49 key=14 pitch_keycenter=21
<region> sample=CHR_021.wav pan=-48 key=15 pitch_keycenter=21
<region> sample=CHR_021.wav pan=-47 key=16 pitch_keycenter=21
<region> sample=CHR_021.wav pan=-46 key=17 pitch_keycenter=21
<region> sample=CHR_021.wav pan=-45 key=18 pitch_keycenter=21
<region> sample=CHR_021.wav pan=-44 key=19 pitch_keycenter=21
<region> sample=CHR_021.wav pan=-43 key=20 pitch_keycenter=21
<region> sample=CHR_021.wav pan=-42 key=21
<region> sample=CHR_022.wav pan=-41 key=22
<region> sample=CHR_023.wav pan=-40 key=23
<region> sample=CHR_024.wav pan=-39 key=24
<region> sample=CHR_025.wav pan=-38 key=25
<region> sample=CHR_026.wav pan=-37 key=26
<region> sample=CHR_027.wav pan=-36 key=27
<region> sample=CHR_028.wav pan=-35 key=28
<region> sample=CHR_029.wav pan=-34 key=29
<region> sample=CHR_030.wav pan=-33 key=30
<region> sample=CHR_031.wav pan=-32 key=31
<region> sample=CHR_032.wav pan=-31 key=32
<region> sample=CHR_033.wav pan=-30 key=33
<region> sample=CHR_034.wav pan=-29 key=34
<region> sample=CHR_035.wav pan=-28 key=35
<region> sample=CHR_036.wav pan=-27 key=36
<region> sample=CHR_037.wav pan=-26 key=37
<region> sample=CHR_038.wav pan=-25 key=38
<region> sample=CHR_039.wav pan=-24 key=39
<region> sample=CHR_040.wav pan=-23 key=40
<region> sample=CHR_041.wav pan=-22 key=41
<region> sample=CHR_042.wav pan=-21 key=42
<region> sample=CHR_043.wav pan=-20 key=43
<region> sample=CHR_044.wav pan=-19 key=44
<region> sample=CHR_045.wav pan=-18 key=45
<region> sample=CHR_046.wav pan=-17 key=46
<region> sample=CHR_047.wav pan=-16 key=47
<region> sample=CHR_048.wav pan=-15 key=48
<region> sample=CHR_049.wav pan=-14 key=49
<region> sample=CHR_050.wav pan=-13 key=50
<region> sample=CHR_051.wav pan=-12 key=51
<region> sample=CHR_052.wav pan=-11 key=52
<region> sample=CHR_053.wav pan=-10 key=53
<region> sample=CHR_054.wav pan=-9 key=54
<region> sample=CHR_055.wav pan=-8 key=55
<region> sample=CHR_056.wav pan=-7 key=56
<region> sample=CHR_057.wav pan=-6 key=57
<region> sample=CHR_058.wav pan=-5 key=58
<region> sample=CHR_059.wav pan=-4 key=59
<region> sample=CHR_060.wav pan=-3 key=60
<region> sample=CHR_061.wav pan=-2 key=61
<region> sample=CHR_062.wav pan=-1 key=62
<region> sample=CHR_063.wav pan=0 key=63
<region> sample=CHR_064.wav pan=1 key=64
<region> sample=CHR_065.wav pan=2 key=65
<region> sample=CHR_066.wav pan=3 key=66
<region> sample=CHR_067.wav pan=4 key=67
<region> sample=CHR_068.wav pan=5 key=68
<region> sample=CHR_069.wav pan=6 key=69
<region> sample=CHR_070.wav pan=7 key=70
<region> sample=CHR_071.wav pan=8 key=71
<region> sample=CHR_072.wav pan=9 key=72
<region> sample=CHR_073.wav pan=10 key=73
<region> sample=CHR_074.wav pan=11 key=74
<region> sample=CHR_075.wav pan=12 key=75
<region> sample=CHR_076.wav pan=13 key=76
<region> sample=CHR_077.wav pan=14 key=77
<region> sample=CHR_078.wav pan=15 key=78
<region> sample=CHR_079.wav pan=16 key=79
<region> sample=CHR_080.wav pan=17 key=80
<region> sample=CHR_081.wav pan=18 key=81
<region> sample=CHR_082.wav pan=19 key=82
<region> sample=CHR_083.wav pan=20 key=83
<region> sample=CHR_084.wav pan=21 key=84
<region> sample=CHR_085.wav pan=22 key=85
<region> sample=CHR_086.wav pan=23 key=86
<region> sample=CHR_087.wav pan=24 key=87
<region> sample=CHR_088.wav pan=25 key=88
<region> sample=CHR_089.wav pan=26 key=89
<region> sample=CHR_090.wav pan=27 key=90
<region> sample=CHR_091.wav pan=28 key=91
<region> sample=CHR_092.wav pan=29 key=92
<region> sample=CHR_093.wav pan=30 key=93
<region> sample=CHR_094.wav pan=31 key=94
<region> sample=CHR_095.wav pan=32 key=95
<region> sample=CHR_096.wav pan=33 key=96
<region> sample=CHR_097.wav pan=34 key=97
<region> sample=CHR_098.wav pan=35 key=98
<region> sample=CHR_099.wav pan=36 key=99
<region> sample=CHR_100.wav pan=37 key=100
<region> sample=CHR_101.wav pan=38 key=101
<region> sample=CHR_102.wav pan=39 key=102
<region> sample=CHR_103.wav pan=40 key=103
<region> sample=CHR_104.wav pan=41 key=104
<region> sample=CHR_105.wav pan=42 key=105
<region> sample=CHR_106.wav pan=43 key=106
<region> sample=CHR_107.wav pan=44 key=107
<region> sample=CHR_108.wav pan=45 key=108
<region> sample=CHR_108.wav pan=46 key=109 pitch_keycenter=108
<region> sample=CHR_108.wav pan=47 key=110 pitch_keycenter=108
<region> sample=CHR_108.wav pan=48 key=111 pitch_keycenter=108
<region> sample=CHR_108.wav pan=49 key=112 pitch_keycenter=108
<region> sample=CHR_108.wav pan=50 key=113 pitch_keycenter=108
<region> sample=CHR_108.wav pan=51 key=114 pitch_keycenter=108
<region> sample=CHR_108.wav pan=52 key=115 pitch_keycenter=108
<region> sample=CHR_108.wav pan=53 key=116 pitch_keycenter=108
<region> sample=CHR_108.wav pan=54 key=117 pitch_keycenter=108
<region> sample=CHR_108.wav pan=55 key=118 pitch_keycenter=108
<region> sample=CHR_108.wav pan=56 key=119 pitch_keycenter=108
<region> sample=CHR_108.wav pan=57 key=120 pitch_keycenter=108
<region> sample=CHR_108.wav pan=58 key=121 pitch_keycenter=108
<region> sample=CHR_108.wav pan=59 key=122 pitch_keycenter=108
<region> sample=CHR_108.wav pan=60 key=123 pitch_keycenter=108
<region> sample=CHR_108.wav pan=61 key=124 pitch_keycenter=108
<region> sample=CHR_108.wav pan=62 key=125 pitch_keycenter=108
<region> sample=CHR_108.wav pan=63 key=126 pitch_keycenter=108
<region> sample=CHR_108.wav pan=64 key=127 pitch_keycenter=108
